<svg width="93" height="93" viewBox="0 0 93 93" fill="none" xmlns="http://www.w3.org/2000/svg">
<path d="M46.8375 0.531067L86.6142 23.477V69.3687L46.8375 92.3146L7.06071 69.3687V23.477L46.8375 0.531067Z" fill="#45A29E"/>
<path d="M27.6451 46.7316C28.6111 46.9416 29.3531 47.3616 29.8711 47.9916C30.4031 48.6076 30.6691 49.4056 30.6691 50.3856C30.6691 51.6456 30.2001 52.6186 29.2621 53.3046C28.3381 53.9766 26.9661 54.3126 25.1461 54.3126H18.3841V39.6126H24.7261C26.3641 39.6126 27.6311 39.9416 28.5271 40.5996C29.4371 41.2576 29.8921 42.1886 29.8921 43.3926C29.8921 44.2046 29.6891 44.8976 29.2831 45.4716C28.8911 46.0316 28.3451 46.4516 27.6451 46.7316ZM19.9381 40.8936V46.2276H24.6211C25.8111 46.2276 26.7281 46.0036 27.3721 45.5556C28.0161 45.0936 28.3381 44.4286 28.3381 43.5606C28.3381 42.6926 28.0161 42.0346 27.3721 41.5866C26.7281 41.1246 25.8111 40.8936 24.6211 40.8936H19.9381ZM25.1251 53.0316C26.4411 53.0316 27.4351 52.8076 28.1071 52.3596C28.7791 51.9116 29.1151 51.2116 29.1151 50.2596C29.1151 48.4256 27.7851 47.5086 25.1251 47.5086H19.9381V53.0316H25.1251ZM43.9811 43.2666V54.3126H42.5531V52.1286C42.1051 52.8706 41.5101 53.4376 40.7681 53.8296C40.0401 54.2216 39.2141 54.4176 38.2901 54.4176C37.2541 54.4176 36.3161 54.1796 35.4761 53.7036C34.6361 53.2276 33.9781 52.5626 33.5021 51.7086C33.0261 50.8546 32.7881 49.8816 32.7881 48.7896C32.7881 47.6976 33.0261 46.7246 33.5021 45.8706C33.9781 45.0166 34.6361 44.3586 35.4761 43.8966C36.3161 43.4206 37.2541 43.1826 38.2901 43.1826C39.1861 43.1826 39.9911 43.3716 40.7051 43.7496C41.4331 44.1136 42.0281 44.6526 42.4901 45.3666V43.2666H43.9811ZM38.4161 53.0946C39.1861 53.0946 39.8791 52.9196 40.4951 52.5696C41.1251 52.2056 41.6151 51.6946 41.9651 51.0366C42.3291 50.3786 42.5111 49.6296 42.5111 48.7896C42.5111 47.9496 42.3291 47.2006 41.9651 46.5426C41.6151 45.8846 41.1251 45.3806 40.4951 45.0306C39.8791 44.6666 39.1861 44.4846 38.4161 44.4846C37.6321 44.4846 36.9251 44.6666 36.2951 45.0306C35.6791 45.3806 35.1891 45.8846 34.8251 46.5426C34.4751 47.2006 34.3001 47.9496 34.3001 48.7896C34.3001 49.6296 34.4751 50.3786 34.8251 51.0366C35.1891 51.6946 35.6791 52.2056 36.2951 52.5696C36.9251 52.9196 37.6321 53.0946 38.4161 53.0946ZM52.7115 54.4176C51.6195 54.4176 50.6395 54.1796 49.7715 53.7036C48.9175 53.2276 48.2455 52.5626 47.7555 51.7086C47.2655 50.8406 47.0205 49.8676 47.0205 48.7896C47.0205 47.7116 47.2655 46.7456 47.7555 45.8916C48.2455 45.0376 48.9175 44.3726 49.7715 43.8966C50.6395 43.4206 51.6195 43.1826 52.7115 43.1826C53.6635 43.1826 54.5105 43.3716 55.2525 43.7496C56.0085 44.1136 56.6035 44.6526 57.0375 45.3666L55.9245 46.1226C55.5605 45.5766 55.0985 45.1706 54.5385 44.9046C53.9785 44.6246 53.3695 44.4846 52.7115 44.4846C51.9135 44.4846 51.1925 44.6666 50.5485 45.0306C49.9185 45.3806 49.4215 45.8846 49.0575 46.5426C48.7075 47.2006 48.5325 47.9496 48.5325 48.7896C48.5325 49.6436 48.7075 50.3996 49.0575 51.0576C49.4215 51.7016 49.9185 52.2056 50.5485 52.5696C51.1925 52.9196 51.9135 53.0946 52.7115 53.0946C53.3695 53.0946 53.9785 52.9616 54.5385 52.6956C55.0985 52.4296 55.5605 52.0236 55.9245 51.4776L57.0375 52.2336C56.6035 52.9476 56.0085 53.4936 55.2525 53.8716C54.4965 54.2356 53.6495 54.4176 52.7115 54.4176ZM63.8975 48.7686L61.2935 51.1626V54.3126H59.8025V38.7306H61.2935V49.2936L67.8875 43.2666H69.7355L65.0105 47.7816L70.1765 54.3126H68.3495L63.8975 48.7686Z" fill="black"/>
</svg>
