<svg width="92" height="100" viewBox="0 0 92 100" fill="none" xmlns="http://www.w3.org/2000/svg">
<g filter="url(#filter0_d)">
<path d="M45.9302 0L85.707 22.9459V68.8377L45.9302 91.7836L6.15348 68.8377V22.9459L45.9302 0Z" fill="#45A29E"/>
<path d="M30.4821 43.419C31.4481 43.629 32.1901 44.049 32.7081 44.679C33.2401 45.295 33.5061 46.093 33.5061 47.073C33.5061 48.333 33.0371 49.306 32.0991 49.992C31.1751 50.664 29.8031 51 27.9831 51H21.2211V36.3H27.5631C29.2011 36.3 30.4681 36.629 31.3641 37.287C32.2741 37.945 32.7291 38.876 32.7291 40.08C32.7291 40.892 32.5261 41.585 32.1201 42.159C31.7281 42.719 31.1821 43.139 30.4821 43.419ZM22.7751 37.581V42.915H27.4581C28.6481 42.915 29.5651 42.691 30.2091 42.243C30.8531 41.781 31.1751 41.116 31.1751 40.248C31.1751 39.38 30.8531 38.722 30.2091 38.274C29.5651 37.812 28.6481 37.581 27.4581 37.581H22.7751ZM27.9621 49.719C29.2781 49.719 30.2721 49.495 30.9441 49.047C31.6161 48.599 31.9521 47.899 31.9521 46.947C31.9521 45.113 30.6221 44.196 27.9621 44.196H22.7751V49.719H27.9621ZM46.8182 39.954V51H45.3902V48.816C44.9422 49.558 44.3472 50.125 43.6052 50.517C42.8772 50.909 42.0512 51.105 41.1272 51.105C40.0912 51.105 39.1532 50.867 38.3132 50.391C37.4732 49.915 36.8152 49.25 36.3392 48.396C35.8632 47.542 35.6252 46.569 35.6252 45.477C35.6252 44.385 35.8632 43.412 36.3392 42.558C36.8152 41.704 37.4732 41.046 38.3132 40.584C39.1532 40.108 40.0912 39.87 41.1272 39.87C42.0232 39.87 42.8282 40.059 43.5422 40.437C44.2702 40.801 44.8652 41.34 45.3272 42.054V39.954H46.8182ZM41.2532 49.782C42.0232 49.782 42.7162 49.607 43.3322 49.257C43.9622 48.893 44.4522 48.382 44.8022 47.724C45.1662 47.066 45.3482 46.317 45.3482 45.477C45.3482 44.637 45.1662 43.888 44.8022 43.23C44.4522 42.572 43.9622 42.068 43.3322 41.718C42.7162 41.354 42.0232 41.172 41.2532 41.172C40.4692 41.172 39.7622 41.354 39.1322 41.718C38.5162 42.068 38.0262 42.572 37.6622 43.23C37.3122 43.888 37.1372 44.637 37.1372 45.477C37.1372 46.317 37.3122 47.066 37.6622 47.724C38.0262 48.382 38.5162 48.893 39.1322 49.257C39.7622 49.607 40.4692 49.782 41.2532 49.782ZM55.5486 51.105C54.4566 51.105 53.4766 50.867 52.6086 50.391C51.7546 49.915 51.0826 49.25 50.5926 48.396C50.1026 47.528 49.8576 46.555 49.8576 45.477C49.8576 44.399 50.1026 43.433 50.5926 42.579C51.0826 41.725 51.7546 41.06 52.6086 40.584C53.4766 40.108 54.4566 39.87 55.5486 39.87C56.5006 39.87 57.3476 40.059 58.0896 40.437C58.8456 40.801 59.4406 41.34 59.8746 42.054L58.7616 42.81C58.3976 42.264 57.9356 41.858 57.3756 41.592C56.8156 41.312 56.2066 41.172 55.5486 41.172C54.7506 41.172 54.0296 41.354 53.3856 41.718C52.7556 42.068 52.2586 42.572 51.8946 43.23C51.5446 43.888 51.3696 44.637 51.3696 45.477C51.3696 46.331 51.5446 47.087 51.8946 47.745C52.2586 48.389 52.7556 48.893 53.3856 49.257C54.0296 49.607 54.7506 49.782 55.5486 49.782C56.2066 49.782 56.8156 49.649 57.3756 49.383C57.9356 49.117 58.3976 48.711 58.7616 48.165L59.8746 48.921C59.4406 49.635 58.8456 50.181 58.0896 50.559C57.3336 50.923 56.4866 51.105 55.5486 51.105ZM66.7345 45.456L64.1305 47.85V51H62.6395V35.418H64.1305V45.981L70.7245 39.954H72.5725L67.8475 44.469L73.0135 51H71.1865L66.7345 45.456Z" fill="black"/>
</g>
<defs>
<filter id="filter0_d" x="4.15356" y="0" width="87.5535" height="99.7836" filterUnits="userSpaceOnUse" color-interpolation-filters="sRGB">
<feFlood flood-opacity="0" result="BackgroundImageFix"/>
<feColorMatrix in="SourceAlpha" type="matrix" values="0 0 0 0 0 0 0 0 0 0 0 0 0 0 0 0 0 0 127 0"/>
<feOffset dx="2" dy="4"/>
<feGaussianBlur stdDeviation="2"/>
<feColorMatrix type="matrix" values="0 0 0 0 0 0 0 0 0 1 0 0 0 0 0.956989 0 0 0 0.3 0"/>
<feBlend mode="normal" in2="BackgroundImageFix" result="effect1_dropShadow"/>
<feBlend mode="normal" in="SourceGraphic" in2="effect1_dropShadow" result="shape"/>
</filter>
</defs>
</svg>
