<svg width="93" height="93" viewBox="0 0 93 93" fill="none" xmlns="http://www.w3.org/2000/svg">
<path d="M46.4185 0.531067L86.1953 23.477V69.3687L46.4185 92.3146L6.64177 69.3687V23.477L46.4185 0.531067Z" fill="#45A29E"/>
<path d="M22.8978 40.8726C21.4558 40.8726 20.3778 41.2016 19.6638 41.8596C18.9638 42.5036 18.6138 43.4416 18.6138 44.6736V46.7316H25.6278V48.0756H18.6138V54.3126H17.0598V44.6526C17.0598 43.0426 17.5638 41.7826 18.5718 40.8726C19.5798 39.9486 21.0008 39.4866 22.8348 39.4866C24.6128 39.4866 26.0408 39.8716 27.1188 40.6416L26.5518 41.9226C25.5998 41.2226 24.3818 40.8726 22.8978 40.8726ZM30.5215 45.4296C30.8715 44.6876 31.3895 44.1276 32.0755 43.7496C32.7755 43.3716 33.6365 43.1826 34.6585 43.1826V44.6316L34.3015 44.6106C33.1395 44.6106 32.2295 44.9676 31.5715 45.6816C30.9135 46.3956 30.5845 47.3966 30.5845 48.6846V54.3126H29.0935V43.2666H30.5215V45.4296ZM41.7706 54.4176C40.7066 54.4176 39.7476 54.1796 38.8936 53.7036C38.0396 53.2136 37.3676 52.5416 36.8776 51.6876C36.3876 50.8336 36.1426 49.8676 36.1426 48.7896C36.1426 47.7116 36.3876 46.7456 36.8776 45.8916C37.3676 45.0376 38.0396 44.3726 38.8936 43.8966C39.7476 43.4206 40.7066 43.1826 41.7706 43.1826C42.8346 43.1826 43.7936 43.4206 44.6476 43.8966C45.5016 44.3726 46.1666 45.0376 46.6426 45.8916C47.1326 46.7456 47.3776 47.7116 47.3776 48.7896C47.3776 49.8676 47.1326 50.8336 46.6426 51.6876C46.1666 52.5416 45.5016 53.2136 44.6476 53.7036C43.7936 54.1796 42.8346 54.4176 41.7706 54.4176ZM41.7706 53.0946C42.5546 53.0946 43.2546 52.9196 43.8706 52.5696C44.5006 52.2056 44.9906 51.6946 45.3406 51.0366C45.6906 50.3786 45.8656 49.6296 45.8656 48.7896C45.8656 47.9496 45.6906 47.2006 45.3406 46.5426C44.9906 45.8846 44.5006 45.3806 43.8706 45.0306C43.2546 44.6666 42.5546 44.4846 41.7706 44.4846C40.9866 44.4846 40.2796 44.6666 39.6496 45.0306C39.0336 45.3806 38.5436 45.8846 38.1796 46.5426C37.8296 47.2006 37.6546 47.9496 37.6546 48.7896C37.6546 49.6296 37.8296 50.3786 38.1796 51.0366C38.5436 51.6946 39.0336 52.2056 39.6496 52.5696C40.2796 52.9196 40.9866 53.0946 41.7706 53.0946ZM56.0496 43.1826C57.4356 43.1826 58.5346 43.5886 59.3466 44.4006C60.1726 45.1986 60.5856 46.3676 60.5856 47.9076V54.3126H59.0946V48.0546C59.0946 46.9066 58.8076 46.0316 58.2336 45.4296C57.6596 44.8276 56.8406 44.5266 55.7766 44.5266C54.5866 44.5266 53.6416 44.8836 52.9416 45.5976C52.2556 46.2976 51.9126 47.2706 51.9126 48.5166V54.3126H50.4216V43.2666H51.8496V45.3036C52.2556 44.6316 52.8156 44.1136 53.5296 43.7496C54.2576 43.3716 55.0976 43.1826 56.0496 43.1826ZM70.0725 53.6406C69.7925 53.8926 69.4495 54.0886 69.0435 54.2286C68.6375 54.3546 68.2105 54.4176 67.7625 54.4176C66.7265 54.4176 65.9285 54.1376 65.3685 53.5776C64.8085 53.0176 64.5285 52.2266 64.5285 51.2046V40.8516H66.0195V43.2666H69.3585V44.5266H66.0195V51.1206C66.0195 51.7786 66.1805 52.2826 66.5025 52.6326C66.8245 52.9686 67.2935 53.1366 67.9095 53.1366C68.5815 53.1366 69.1275 52.9476 69.5475 52.5696L70.0725 53.6406Z" fill="black"/>
</svg>
