<svg width="92" height="100" viewBox="0 0 92 100" fill="none" xmlns="http://www.w3.org/2000/svg">
<g filter="url(#filter0_d)">
<path d="M45.9302 0L85.707 22.9459V68.8377L45.9302 91.7836L6.15348 68.8377V22.9459L45.9302 0Z" fill="#45A29E"/>
<path d="M26.1539 37.56C24.7119 37.56 23.6339 37.889 22.9199 38.547C22.2199 39.191 21.8699 40.129 21.8699 41.361V43.419H28.8839V44.763H21.8699V51H20.3159V41.34C20.3159 39.73 20.8199 38.47 21.8279 37.56C22.8359 36.636 24.2569 36.174 26.0909 36.174C27.8689 36.174 29.2969 36.559 30.3749 37.329L29.8079 38.61C28.8559 37.91 27.6379 37.56 26.1539 37.56ZM33.7775 42.117C34.1275 41.375 34.6455 40.815 35.3315 40.437C36.0315 40.059 36.8925 39.87 37.9145 39.87V41.319L37.5575 41.298C36.3955 41.298 35.4855 41.655 34.8275 42.369C34.1695 43.083 33.8405 44.084 33.8405 45.372V51H32.3495V39.954H33.7775V42.117ZM45.0266 51.105C43.9626 51.105 43.0036 50.867 42.1496 50.391C41.2956 49.901 40.6236 49.229 40.1336 48.375C39.6436 47.521 39.3986 46.555 39.3986 45.477C39.3986 44.399 39.6436 43.433 40.1336 42.579C40.6236 41.725 41.2956 41.06 42.1496 40.584C43.0036 40.108 43.9626 39.87 45.0266 39.87C46.0906 39.87 47.0496 40.108 47.9036 40.584C48.7576 41.06 49.4226 41.725 49.8986 42.579C50.3886 43.433 50.6336 44.399 50.6336 45.477C50.6336 46.555 50.3886 47.521 49.8986 48.375C49.4226 49.229 48.7576 49.901 47.9036 50.391C47.0496 50.867 46.0906 51.105 45.0266 51.105ZM45.0266 49.782C45.8106 49.782 46.5106 49.607 47.1266 49.257C47.7566 48.893 48.2466 48.382 48.5966 47.724C48.9466 47.066 49.1216 46.317 49.1216 45.477C49.1216 44.637 48.9466 43.888 48.5966 43.23C48.2466 42.572 47.7566 42.068 47.1266 41.718C46.5106 41.354 45.8106 41.172 45.0266 41.172C44.2426 41.172 43.5356 41.354 42.9056 41.718C42.2896 42.068 41.7996 42.572 41.4356 43.23C41.0856 43.888 40.9106 44.637 40.9106 45.477C40.9106 46.317 41.0856 47.066 41.4356 47.724C41.7996 48.382 42.2896 48.893 42.9056 49.257C43.5356 49.607 44.2426 49.782 45.0266 49.782ZM59.3056 39.87C60.6916 39.87 61.7906 40.276 62.6026 41.088C63.4286 41.886 63.8416 43.055 63.8416 44.595V51H62.3506V44.742C62.3506 43.594 62.0636 42.719 61.4896 42.117C60.9156 41.515 60.0966 41.214 59.0326 41.214C57.8426 41.214 56.8976 41.571 56.1976 42.285C55.5116 42.985 55.1686 43.958 55.1686 45.204V51H53.6776V39.954H55.1056V41.991C55.5116 41.319 56.0716 40.801 56.7856 40.437C57.5136 40.059 58.3536 39.87 59.3056 39.87ZM73.3285 50.328C73.0485 50.58 72.7055 50.776 72.2995 50.916C71.8935 51.042 71.4665 51.105 71.0185 51.105C69.9825 51.105 69.1845 50.825 68.6245 50.265C68.0645 49.705 67.7845 48.914 67.7845 47.892V37.539H69.2755V39.954H72.6145V41.214H69.2755V47.808C69.2755 48.466 69.4365 48.97 69.7585 49.32C70.0805 49.656 70.5495 49.824 71.1655 49.824C71.8375 49.824 72.3835 49.635 72.8035 49.257L73.3285 50.328Z" fill="black"/>
</g>
<defs>
<filter id="filter0_d" x="4.15356" y="0" width="87.5535" height="99.7836" filterUnits="userSpaceOnUse" color-interpolation-filters="sRGB">
<feFlood flood-opacity="0" result="BackgroundImageFix"/>
<feColorMatrix in="SourceAlpha" type="matrix" values="0 0 0 0 0 0 0 0 0 0 0 0 0 0 0 0 0 0 127 0"/>
<feOffset dx="2" dy="4"/>
<feGaussianBlur stdDeviation="2"/>
<feColorMatrix type="matrix" values="0 0 0 0 0 0 0 0 0 1 0 0 0 0 0.956989 0 0 0 0.3 0"/>
<feBlend mode="normal" in2="BackgroundImageFix" result="effect1_dropShadow"/>
<feBlend mode="normal" in="SourceGraphic" in2="effect1_dropShadow" result="shape"/>
</filter>
</defs>
</svg>
