<svg width="93" height="93" viewBox="0 0 93 93" fill="none" xmlns="http://www.w3.org/2000/svg">
<path d="M46.4649 0.531067L86.2416 23.477V69.3687L46.4649 92.3146L6.68815 69.3687V23.477L46.4649 0.531067Z" fill="#45A29E"/>
<path d="M33.8785 53.603C32.7865 53.603 31.7365 53.428 30.7285 53.078C29.7345 52.728 28.9645 52.266 28.4185 51.692L29.0275 50.495C29.5595 51.027 30.2665 51.461 31.1485 51.797C32.0305 52.119 32.9405 52.28 33.8785 52.28C35.1945 52.28 36.1815 52.042 36.8395 51.566C37.4975 51.076 37.8265 50.446 37.8265 49.676C37.8265 49.088 37.6445 48.619 37.2805 48.269C36.9305 47.919 36.4965 47.653 35.9785 47.471C35.4605 47.275 34.7395 47.065 33.8155 46.841C32.7095 46.561 31.8275 46.295 31.1695 46.043C30.5115 45.777 29.9445 45.378 29.4685 44.846C29.0065 44.314 28.7755 43.593 28.7755 42.683C28.7755 41.941 28.9715 41.269 29.3635 40.667C29.7555 40.051 30.3575 39.561 31.1695 39.197C31.9815 38.833 32.9895 38.651 34.1935 38.651C35.0335 38.651 35.8525 38.77 36.6505 39.008C37.4625 39.232 38.1625 39.547 38.7505 39.953L38.2255 41.192C37.6095 40.786 36.9515 40.485 36.2515 40.289C35.5515 40.079 34.8655 39.974 34.1935 39.974C32.9055 39.974 31.9325 40.226 31.2745 40.73C30.6305 41.22 30.3085 41.857 30.3085 42.641C30.3085 43.229 30.4835 43.705 30.8335 44.069C31.1975 44.419 31.6455 44.692 32.1775 44.888C32.7235 45.07 33.4515 45.273 34.3615 45.497C35.4395 45.763 36.3075 46.029 36.9655 46.295C37.6375 46.547 38.2045 46.939 38.6665 47.471C39.1285 47.989 39.3595 48.696 39.3595 49.592C39.3595 50.334 39.1565 51.013 38.7505 51.629C38.3585 52.231 37.7495 52.714 36.9235 53.078C36.0975 53.428 35.0825 53.603 33.8785 53.603ZM42.4304 42.431H43.9214V53.477H42.4304V42.431ZM43.1864 40.016C42.8784 40.016 42.6194 39.911 42.4094 39.701C42.1994 39.491 42.0944 39.239 42.0944 38.945C42.0944 38.665 42.1994 38.42 42.4094 38.21C42.6194 38 42.8784 37.895 43.1864 37.895C43.4944 37.895 43.7534 38 43.9634 38.21C44.1734 38.406 44.2784 38.644 44.2784 38.924C44.2784 39.232 44.1734 39.491 43.9634 39.701C43.7534 39.911 43.4944 40.016 43.1864 40.016ZM53.509 52.805C53.229 53.057 52.886 53.253 52.48 53.393C52.074 53.519 51.647 53.582 51.199 53.582C50.163 53.582 49.365 53.302 48.805 52.742C48.245 52.182 47.965 51.391 47.965 50.369V40.016H49.456V42.431H52.795V43.691H49.456V50.285C49.456 50.943 49.617 51.447 49.939 51.797C50.261 52.133 50.73 52.301 51.346 52.301C52.018 52.301 52.564 52.112 52.984 51.734L53.509 52.805ZM60.547 52.259C61.233 52.259 61.863 52.14 62.437 51.902C63.025 51.65 63.522 51.286 63.928 50.81L64.768 51.776C64.278 52.364 63.669 52.812 62.941 53.12C62.213 53.428 61.408 53.582 60.526 53.582C59.392 53.582 58.384 53.344 57.502 52.868C56.62 52.378 55.934 51.706 55.444 50.852C54.954 49.998 54.709 49.032 54.709 47.954C54.709 46.876 54.94 45.91 55.402 45.056C55.878 44.202 56.529 43.537 57.355 43.061C58.181 42.585 59.119 42.347 60.169 42.347C61.149 42.347 62.031 42.571 62.815 43.019C63.613 43.467 64.243 44.09 64.705 44.888C65.181 45.686 65.433 46.596 65.461 47.618L56.389 49.382C56.669 50.278 57.173 50.985 57.901 51.503C58.643 52.007 59.525 52.259 60.547 52.259ZM60.169 43.628C59.399 43.628 58.706 43.81 58.09 44.174C57.488 44.524 57.012 45.021 56.662 45.665C56.326 46.295 56.158 47.023 56.158 47.849C56.158 48.059 56.165 48.213 56.179 48.311L63.97 46.799C63.802 45.875 63.375 45.119 62.689 44.531C62.003 43.929 61.163 43.628 60.169 43.628Z" fill="#C5C6C7"/>
</svg>
