<svg width="92" height="100" viewBox="0 0 92 100" fill="none" xmlns="http://www.w3.org/2000/svg">
<g filter="url(#filter0_d)">
<path d="M45.9302 0L85.707 22.9459V68.8377L45.9302 91.7836L6.15348 68.8377V22.9459L45.9302 0Z" fill="#45A29E"/>
<path d="M27.517 36.3H29.071V49.656H37.303V51H27.517V36.3ZM39.5683 39.954H41.0593V51H39.5683V39.954ZM40.3243 37.539C40.0163 37.539 39.7573 37.434 39.5473 37.224C39.3373 37.014 39.2323 36.762 39.2323 36.468C39.2323 36.188 39.3373 35.943 39.5473 35.733C39.7573 35.523 40.0163 35.418 40.3243 35.418C40.6323 35.418 40.8913 35.523 41.1013 35.733C41.3113 35.929 41.4163 36.167 41.4163 36.447C41.4163 36.755 41.3113 37.014 41.1013 37.224C40.8913 37.434 40.6323 37.539 40.3243 37.539ZM54.4899 39.954L49.5759 51H48.0429L43.1499 39.954H44.7039L48.8409 49.362L53.0199 39.954H54.4899ZM61.0071 49.782C61.6931 49.782 62.3231 49.663 62.8971 49.425C63.4851 49.173 63.9821 48.809 64.3881 48.333L65.2281 49.299C64.7381 49.887 64.1291 50.335 63.4011 50.643C62.6731 50.951 61.8681 51.105 60.9861 51.105C59.8521 51.105 58.8441 50.867 57.9621 50.391C57.0801 49.901 56.3941 49.229 55.9041 48.375C55.4141 47.521 55.1691 46.555 55.1691 45.477C55.1691 44.399 55.4001 43.433 55.8621 42.579C56.3381 41.725 56.9891 41.06 57.8151 40.584C58.6411 40.108 59.5791 39.87 60.6291 39.87C61.6091 39.87 62.4911 40.094 63.2751 40.542C64.0731 40.99 64.7031 41.613 65.1651 42.411C65.6411 43.209 65.8931 44.119 65.9211 45.141L56.8491 46.905C57.1291 47.801 57.6331 48.508 58.3611 49.026C59.1031 49.53 59.9851 49.782 61.0071 49.782ZM60.6291 41.151C59.8591 41.151 59.1661 41.333 58.5501 41.697C57.9481 42.047 57.4721 42.544 57.1221 43.188C56.7861 43.818 56.6181 44.546 56.6181 45.372C56.6181 45.582 56.6251 45.736 56.6391 45.834L64.4301 44.322C64.2621 43.398 63.8351 42.642 63.1491 42.054C62.4631 41.452 61.6231 41.151 60.6291 41.151Z" fill="black"/>
</g>
<defs>
<filter id="filter0_d" x="4.15356" y="0" width="87.5535" height="99.7836" filterUnits="userSpaceOnUse" color-interpolation-filters="sRGB">
<feFlood flood-opacity="0" result="BackgroundImageFix"/>
<feColorMatrix in="SourceAlpha" type="matrix" values="0 0 0 0 0 0 0 0 0 0 0 0 0 0 0 0 0 0 127 0"/>
<feOffset dx="2" dy="4"/>
<feGaussianBlur stdDeviation="2"/>
<feColorMatrix type="matrix" values="0 0 0 0 0 0 0 0 0 1 0 0 0 0 0.956989 0 0 0 0.3 0"/>
<feBlend mode="normal" in2="BackgroundImageFix" result="effect1_dropShadow"/>
<feBlend mode="normal" in="SourceGraphic" in2="effect1_dropShadow" result="shape"/>
</filter>
</defs>
</svg>
